<?xml version="1.0" encoding="utf-8"?>
<svg version="1.1" id="Layer_1" xmlns="http://www.w3.org/2000/svg" xmlns:xlink="http://www.w3.org/1999/xlink" x="0px" y="0px"
	 viewBox="0 0 112.4 24" style="enable-background:new 0 0 112.4 24;" xml:space="preserve">
<style type="text/css">
	.st0{fill:none;}
	.st1{fill:#E50013;}
	.st2{fill:#1D2087;}
</style>
<path class="st0" d="M0,0h24v24H0V0z"/>
<g>
	<path class="st1" d="M10.3,12.1c0,0,1.4-9.8,8-9.9c0,0,4.8-0.2,6,4.7c0,0,0.4,1.9-0.9,4c0,0,4.4-0.5,5.2,3.5c0,0,0.7,4.2-4.8,5.3
		c0,0,4.2,0.7,5.6,2.5c0,0,0.1,0.1-0.4,0.3c0,0-0.8,0.2-0.9,0.4c0,0-0.3,0.2-0.5-0.1c0,0-1.1-2.6-9-3.1c0,0,6.2-2.5,6.1-5.6
		c0,0,0.3-3.4-4.1-0.7c0,0,2.6-2.8,2.6-5.3c0,0,0.2-2.3-2.3-2.3c0,0-2.4-0.2-4,4c0,0-0.9,2.2-1.3,5.9l-0.3,3.6c0,0,0,1.6-2.1,1.6
		c0,0-1.8,0-2-2c0,0-0.2-3.4-0.7-4.7c0,0-1.2-3.2-3.3-3.8c0,0-0.7-0.2-1.3,0c0,0-0.4,0.1-0.4-0.7c0,0-0.4-1.6-1.9-1.9
		c0,0-0.5-0.4,0.3-0.4C3.8,7.5,6.8,7.3,10.3,12.1L10.3,12.1z"/>
	<g>
		<g>
			<rect x="59" y="16.9" class="st0" width="6.8" height="1.3"/>
			<path class="st0" d="M85.1,16.4c-0.7-0.3-1.6-0.4-2.8-0.4s-2.2,0.1-2.8,0.4c-0.6,0.3-0.9,0.6-0.9,1.1c0,0.4,0.3,0.7,0.9,1
				c0.7,0.3,1.6,0.4,2.8,0.4c1.2,0,2.2-0.2,2.8-0.4c0.6-0.3,0.9-0.6,0.9-1C86,17,85.7,16.7,85.1,16.4z"/>
			<rect x="39" y="9.6" class="st0" width="7.8" height="1.7"/>
			<path class="st2" d="M93.9,12.8L93.9,12.8L93.9,12.8L93.9,12.8z"/>
			<g>
				<path class="st2" d="M69.3,7.2c-0.3-1.8-2.6-2.8-2.6-2.8h-2c0,0,1.1,0.3,1.1,1.7v5h-8v-1h6.3V5.7c0,0,0-1.1-1-1.1h-0.4l0,0h-7.4
					l0,0h-0.4c-1.1,0-1.1,1.1-1,1.1l0,0v0c0,0.2,0.1,1.1,1,1.1l0,0h5.3v1.1h-5.3c-1.1,0-1,1.1-1,1.1V11c0,0.7,0.2,1.3,0.6,1.7
					c0.4,0.4,1.1,0.6,1.9,0.6h9.4v0.9H54.8v4.5c0,0.7,0.2,1.2,0.6,1.6c0.4,0.4,1.1,0.6,1.9,0.6h11.9V10.4H71V7.6h-1.7L69.3,7.2
					L69.3,7.2z M65.7,18.2H59v-1.3h6.8V18.2z"/>
				<path class="st2" d="M89.9,7.2c-0.3-1.8-2.6-2.8-2.6-2.8h-2c0,0,1.1,0.3,1.1,1.7v4.6c-1.3-0.4-3.1-1.1-3.8-1.9
					c-0.8-1-1.1-2.2-1.1-3.7V4.4h-3.9v0.8c0,1.6-0.3,2.9-1.3,3.9c-0.8,0.8-2.1,1.4-3.4,1.8c-0.1,0.2-0.1,0.4-0.1,0.6
					c0,1,0.8,1.7,1.7,1.7c0.1,0,0.2,0,0.3,0c1.2-0.4,2.3-1,3.2-1.7c0.7-0.5,1.2-1,1.5-1.4c0.3,0.4,0.8,0.9,1.5,1.4
					c1,0.7,2.1,1.3,3.2,1.7l0,0c0.1,0,0.1,0,0.2,0.1c0.8,0.1,1.6-0.3,1.9-1v1.9c-1.2-0.4-2.5-0.5-4.1-0.5c-2.4,0-4.3,0.4-5.7,1.2
					c-1.3,0.7-1.9,1.6-1.9,2.7c0,1,0.6,1.9,1.9,2.7c1.4,0.8,3.3,1.2,5.7,1.2s4.3-0.4,5.7-1.2c1.3-0.7,1.9-1.6,1.9-2.7v-7.1h1.7V7.5
					h-1.7V7.2z M85.1,18.4c-0.7,0.3-1.6,0.4-2.8,0.4c-1.2,0-2.2-0.2-2.8-0.4c-0.6-0.3-0.9-0.6-0.9-1c0-0.4,0.3-0.8,0.9-1.1
					c0.6-0.3,1.6-0.4,2.8-0.4s2.2,0.2,2.8,0.4c0.6,0.3,0.9,0.6,0.9,1.1C86,17.9,85.7,18.2,85.1,18.4z"/>
				<path class="st2" d="M95.1,15.3c0.1,0,0.2,0,0.3,0l0,0l0,0c1.8-0.3,2.5-0.6,3.8-1.2c1.3-0.5,2.1-1.9,2.5-2.6
					c0.5,0.7,1.3,2,2.6,2.6c1.3,0.6,2.1,0.9,3.9,1.2l0,0l0,0l0,0l0,0c0.1,0,0.2,0,0.2,0c0.9-0.1,1.5-1,1.4-1.9
					c0-0.2-0.1-0.4-0.2-0.5l0,0l0,0l0,0l0,0l0,0c-1.9-0.3-2.8-0.8-3.9-1.6c-1.3-0.9-2.1-2.6-2.1-3.9h4.8l0,0
					c0.8-0.2,0.8-1.1,0.8-1.1V6.2l0,0V5.9l0,0V5.7c0,0,0-1.1-1.1-1.1H95.1c-1.1,0-1,1.1-1,1.1v0.1l0,0v0.6l0,0c0,0.2,0.1,1,1,1l0,0
					h4.7c0,1.2-0.8,3-2.1,3.9c-1.1,0.8-2,1.3-3.8,1.6l0,0l0,0c-0.1,0.2-0.2,0.4-0.2,0.5C93.6,14.3,94.2,15.1,95.1,15.3z"/>
				<path class="st2" d="M108.8,17.2L108.8,17.2h-5.6v-2.8h-3.1v2.8h-5.5c-1.1,0-1,1.1-1,1.1v0.2l0,0v0.3l0,0V19c0,0,0,1.1,1,1.1
					h14.1l0,0c1,0,1-1.1,1-1.1v-0.7C109.8,18.3,109.8,17.3,108.8,17.2z"/>
			</g>
		</g>
		<path class="st2" d="M35.5,11.9c0,0.6,0.2,1.2,0.6,1.5c0.4,0.4,1.1,0.6,1.9,0.6h12.3V5.7c0,0,0-1.1-1-1.1l0,0h-1.5l0,0
			c-1.1,0-1,1.1-1,1.1v0.2l0,0v1.4H39V5.7c0,0,0-1.1-1-1.1h0c0,0-0.1,0-0.4,0h-1c-1.1,0-1,1.1-1,1.1L35.5,11.9L35.5,11.9z M39,9.6
			h7.8v1.7H39V9.6z"/>
		<path class="st2" d="M49.9,17.4h-5.4v-2.6h-3.2v2.6h-5.4c-1.1,0-1,1.1-1,1.1v1l0,0c0,0.2,0.1,1,1,1h14c0.9,0,1-0.8,1-1l0,0v-1
			C50.9,18.5,51,17.4,49.9,17.4z"/>
	</g>
</g>
</svg>
